<?xml version="1.0" encoding="UTF-8" standalone="no"?>
<!DOCTYPE svg PUBLIC "-//W3C//DTD SVG 1.1//EN"
 "http://www.w3.org/Graphics/SVG/1.1/DTD/svg11.dtd">
<!-- Generated by graphviz version 2.40.1 (20161225.0304)
 -->
<!-- Title: G Pages: 1 -->
<svg width="204pt" height="528pt"
 viewBox="0.00 0.00 204.00 528.00" xmlns="http://www.w3.org/2000/svg" xmlns:xlink="http://www.w3.org/1999/xlink">
<g id="graph0" class="graph" transform="scale(1 1) rotate(0) translate(4 524)">
<title>G</title>
<polygon fill="#ffffff" stroke="transparent" points="-4,4 -4,-524 200,-524 200,4 -4,4"/>
<g id="clust1" class="cluster">
<title>cluster_Global</title>
<path fill="none" stroke="#c0c0c0" d="M20,-8C20,-8 176,-8 176,-8 182,-8 188,-14 188,-20 188,-20 188,-500 188,-500 188,-506 182,-512 176,-512 176,-512 20,-512 20,-512 14,-512 8,-506 8,-500 8,-500 8,-20 8,-20 8,-14 14,-8 20,-8"/>
<text text-anchor="middle" x="98" y="-499.2" font-family="Times,serif" font-size="11.00" fill="#c0c0c0">Global</text>
</g>
<g id="clust2" class="cluster">
<title>cluster_\tomk79</title>
<path fill="none" stroke="#c0c0c0" d="M28,-16C28,-16 168,-16 168,-16 174,-16 180,-22 180,-28 180,-28 180,-472 180,-472 180,-478 174,-484 168,-484 168,-484 28,-484 28,-484 22,-484 16,-478 16,-472 16,-472 16,-28 16,-28 16,-22 22,-16 28,-16"/>
<text text-anchor="middle" x="98" y="-471.2" font-family="Times,serif" font-size="11.00" fill="#c0c0c0">tomk79</text>
</g>
<g id="clust3" class="cluster">
<title>cluster_\tomk79\pickles2</title>
<path fill="none" stroke="#c0c0c0" d="M36,-24C36,-24 160,-24 160,-24 166,-24 172,-30 172,-36 172,-36 172,-444 172,-444 172,-450 166,-456 160,-456 160,-456 36,-456 36,-456 30,-456 24,-450 24,-444 24,-444 24,-36 24,-36 24,-30 30,-24 36,-24"/>
<text text-anchor="middle" x="98" y="-443.2" font-family="Times,serif" font-size="11.00" fill="#c0c0c0">pickles2</text>
</g>
<g id="clust4" class="cluster">
<title>cluster_\tomk79\pickles2\publishEx</title>
<path fill="none" stroke="#c0c0c0" d="M44,-32C44,-32 152,-32 152,-32 158,-32 164,-38 164,-44 164,-44 164,-416 164,-416 164,-422 158,-428 152,-428 152,-428 44,-428 44,-428 38,-428 32,-422 32,-416 32,-416 32,-44 32,-44 32,-38 38,-32 44,-32"/>
<text text-anchor="middle" x="98" y="-415.2" font-family="Times,serif" font-size="11.00" fill="#c0c0c0">publishEx</text>
</g>
<!-- \\tomk79\\pickles2\\publishEx\\device_target_path -->
<g id="node1" class="node">
<title>\\tomk79\\pickles2\\publishEx\\device_target_path</title>
<polygon fill="none" stroke="#000000" points="151,-400 45,-400 45,-364 151,-364 151,-400"/>
<text text-anchor="middle" x="98" y="-379.2" font-family="Courier,monospace" font-size="11.00" fill="#000000">device_target_path</text>
</g>
<!-- \\tomk79\\pickles2\\publishEx\\path_resolver -->
<g id="node2" class="node">
<title>\\tomk79\\pickles2\\publishEx\\path_resolver</title>
<polygon fill="none" stroke="#000000" points="138.5,-346 57.5,-346 57.5,-310 138.5,-310 138.5,-346"/>
<text text-anchor="middle" x="98" y="-325.2" font-family="Courier,monospace" font-size="11.00" fill="#000000">path_resolver</text>
</g>
<!-- \\tomk79\\pickles2\\publishEx\\path_rewriter -->
<g id="node3" class="node">
<title>\\tomk79\\pickles2\\publishEx\\path_rewriter</title>
<polygon fill="none" stroke="#000000" points="138.5,-292 57.5,-292 57.5,-256 138.5,-256 138.5,-292"/>
<text text-anchor="middle" x="98" y="-271.2" font-family="Courier,monospace" font-size="11.00" fill="#000000">path_rewriter</text>
</g>
<!-- \\tomk79\\pickles2\\publishEx\\publish -->
<g id="node4" class="node">
<title>\\tomk79\\pickles2\\publishEx\\publish</title>
<polygon fill="none" stroke="#000000" points="125,-238 71,-238 71,-202 125,-202 125,-238"/>
<text text-anchor="middle" x="98" y="-217.2" font-family="Courier,monospace" font-size="11.00" fill="#000000">publish</text>
</g>
<!-- \\tomk79\\pickles2\\publishEx\\simple_html_dom_node -->
<g id="node5" class="node">
<title>\\tomk79\\pickles2\\publishEx\\simple_html_dom_node</title>
<polygon fill="none" stroke="#000000" points="156,-184 40,-184 40,-148 156,-148 156,-184"/>
<text text-anchor="middle" x="98" y="-163.2" font-family="Courier,monospace" font-size="11.00" fill="#000000">simple_html_dom_node</text>
</g>
<!-- \\tomk79\\pickles2\\publishEx\\simple_html_dom -->
<g id="node6" class="node">
<title>\\tomk79\\pickles2\\publishEx\\simple_html_dom</title>
<polygon fill="none" stroke="#000000" points="143.5,-130 52.5,-130 52.5,-94 143.5,-94 143.5,-130"/>
<text text-anchor="middle" x="98" y="-109.2" font-family="Courier,monospace" font-size="11.00" fill="#000000">simple_html_dom</text>
</g>
<!-- \\tomk79\\pickles2\\publishEx\\tmp_publish_dir -->
<g id="node7" class="node">
<title>\\tomk79\\pickles2\\publishEx\\tmp_publish_dir</title>
<polygon fill="none" stroke="#000000" points="143.5,-76 52.5,-76 52.5,-40 143.5,-40 143.5,-76"/>
<text text-anchor="middle" x="98" y="-55.2" font-family="Courier,monospace" font-size="11.00" fill="#000000">tmp_publish_dir</text>
</g>
</g>
</svg>
